<svg xmlns="http://www.w3.org/2000/svg" viewBox="0 0 32 32">
    <title>Fitness</title>
    <g id="Fitness">
        <path fill="#d1e6e9" d="M30,29c-3.09,1-5.66,2-10,2-5.46,0-8.82-1.62-12-3L6,31H1V15l2.34-.59A7.88,7.88,0,0,1,12,18c4.82-.64,8.49.85,11,4A15.24,15.24,0,0,1,23.26,18c.72-3.59,0-4.83-1.26-7.95l6-2C31,16,32,19.35,30,29Z"/>
        <circle fill="#68c7d3" cx="24" cy="7" r="6"/>
        <circle fill="#30acc2" cx="24" cy="7" r="2"/>
        <path fill="#a1d8df" d="M24.71,25.29l-1.42,1.42C21.1,24.52,21,22.23,21,20.06c2.32,1.73,2,2.71,2,1.11A5.79,5.79,0,0,0,24.71,25.29Z"/>
        <rect fill="#30acc2" x="23" y="4" width="2" height="6"/>
        <rect fill="#30acc2" x="21" y="6" width="6" height="2"/>
    </g>
</svg>
